PathFileType	4	(X/Y/Z)	TVC_4_BWA_8_walk_RCNL2025.trc
DataRate	CameraRate	NumFrames	NumMarkers	Units	OrigDataRate	OrigDataStartFrame	OrigNumFrames
100	100	8	27	mm	100	148	294
Frame#	Time	R_Shoulder			L_Shoulder			C7			J_Notch			R_Elbow			L_Elbow			R_Wrist			L_Wrist			R_Asis			L_Asis			R_Psis			L_Psis			Sacral			Thoracic			Sternum			R_Thigh_Lateral			R_Knee_Lateral			R_Shank_Lateral			R_Ankle_Lateral			R_Heel			R_Toe			L_Thigh_Lateral			L_Knee_Lateral			L_Shank_Lateral			L_Ankle_Lateral			L_Heel			L_Toe		
		X1	Y1	Z1	X2	Y2	Z2	X3	Y3	Z3	X4	Y4	Z4	X5	Y5	Z5	X6	Y6	Z6	X7	Y7	Z7	X8	Y8	Z8	X9	Y9	Z9	X10	Y10	Z10	X11	Y11	Z11	X12	Y12	Z12	X13	Y13	Z13	X14	Y14	Z14	X15	Y15	Z15	X16	Y16	Z16	X17	Y17	Z17	X18	Y18	Z18	X19	Y19	Z19	X20	Y20	Z20	X21	Y21	Z21	X22	Y22	Z22	X23	Y23	Z23	X24	Y24	Z24	X25	Y25	Z25	X26	Y26	Z26	X27	Y27	Z27
148	1.47000000	-132.947632	1305.929443	395.428284	-147.462784	1325.009399	14.469967	-195.469727	1384.111694	223.048996	-58.696217	1259.026978	190.534149	-152.784607	991.494324	465.403656	-238.111343	1009.223816	-42.577244	-45.253695	788.155273	450.067032	-188.273026	798.911713	-54.496370	-136.348587	870.951538	369.360474	-191.073318	866.195129	20.548117	-297.294067	910.717773	269.815887	-309.883240	906.277893	178.063828	-303.588654	908.497833	223.939857	-285.919678	1141.223145	220.182434	-29.528433	1068.963867	181.616699	-134.125610	518.688782	370.060638	-155.362976	428.631866	316.372375	-186.395401	256.850189	375.594849	-241.106796	54.010090	274.460999	-293.978790	52.391598	233.824707	-114.520805	41.359024	240.978165	-74.856804	523.257629	9.798231	-63.185642	447.345062	54.628769	-94.949318	338.303680	3.875073	-159.548019	89.890930	73.766563	-201.392776	85.195564	124.623611	-30.932264	53.290958	76.165138
149	1.48000000	-125.021439	1305.475098	395.581604	-139.923187	1324.360962	14.581901	-187.778519	1383.462158	223.239059	-50.906952	1258.489258	190.670166	-141.649170	990.778748	465.571167	-231.860443	1009.023865	-42.107361	-30.865050	789.127350	449.208115	-183.971214	798.318878	-54.580708	-128.480194	870.241394	369.335968	-182.694382	865.568665	20.347425	-289.153168	909.936462	269.309814	-301.547272	905.514587	177.589630	-295.350220	907.725525	223.449722	-277.928192	1140.497925	220.449615	-21.570513	1068.506714	181.814667	-129.166702	517.937927	369.758636	-151.391159	427.935974	316.112518	-183.999985	256.463898	375.326416	-240.986450	54.130829	274.391022	-293.893005	52.711567	233.816467	-114.484550	41.320900	240.936386	-64.650757	523.534546	9.253636	-52.575233	446.909729	54.252762	-78.787346	335.730286	3.533158	-130.949478	84.665764	74.297600	-172.613525	78.195679	125.128113	-0.867161	53.929157	76.956993
150	1.49000000	-117.088654	1304.878540	395.697449	-132.332306	1323.622925	14.658710	-180.084595	1382.695190	223.388474	-43.104462	1257.839111	190.783920	-130.585098	989.952087	465.639252	-225.529800	1008.717834	-41.733360	-16.646110	790.009888	448.229202	-179.360069	797.694489	-54.742100	-120.664665	869.474731	369.293091	-174.189896	864.786072	20.087315	-280.994934	909.017639	268.682983	-293.168579	904.596436	177.007217	-287.081757	906.807037	222.845100	-269.932373	1139.651001	220.624329	-13.593737	1067.925415	181.981369	-124.229210	517.160950	369.480408	-147.443100	427.224640	315.864655	-181.738800	256.058411	375.067261	-240.866013	54.269203	274.317230	-293.814697	53.055923	233.783585	-114.458809	41.295982	240.898041	-54.889408	523.429199	8.577778	-42.487713	446.176208	53.804653	-63.007523	333.086304	3.209376	-102.167053	80.072075	74.945503	-143.485428	71.832726	125.810966	29.155586	55.292000	77.700241
151	1.50000000	-109.153801	1304.141479	395.770020	-124.684143	1322.797119	14.694274	-172.387527	1381.814941	223.489960	-35.286259	1257.081909	190.869827	-119.594452	989.016113	465.606812	-219.100906	1008.302307	-41.458862	-2.610641	790.796997	447.133804	-174.429199	797.026703	-54.978807	-112.896698	868.655334	369.236267	-165.531326	863.885681	19.772301	-272.811432	907.962402	267.942505	-284.738373	903.526489	176.321991	-278.774902	905.744446	222.132248	-261.927185	1138.685181	220.699799	-5.592833	1067.222900	182.111588	-119.312767	516.359802	369.236542	-143.528839	426.506805	315.633331	-179.599548	255.645950	374.833527	-240.744110	54.428028	274.243958	-293.740692	53.432102	233.729507	-114.447975	41.286541	240.860229	-45.609310	522.910461	7.780614	-32.916107	445.168335	53.297070	-47.705765	330.424591	2.907113	-73.373230	76.183853	75.691231	-114.187355	66.200081	126.653214	58.970139	57.421627	78.397278
152	1.51000000	-101.223412	1303.268555	395.792664	-116.973793	1321.886475	14.681638	-164.687851	1380.827026	223.535126	-27.450539	1256.225098	190.921585	-108.680023	987.975708	465.472748	-212.554993	1007.775146	-41.287483	11.227314	791.484802	445.926117	-169.169365	796.305542	-55.289087	-105.165779	867.786804	369.167389	-156.706528	862.897278	19.409576	-264.594818	906.774841	267.098175	-276.247620	902.310669	175.540726	-270.421219	904.542755	221.319450	-253.907211	1137.604370	220.669403	2.437529	1066.405029	182.200806	-114.419205	515.534912	369.036194	-139.654907	425.791290	315.420990	-177.563782	255.244751	374.638611	-240.619141	54.611523	274.176147	-293.665741	53.849865	233.663025	-114.455826	41.292698	240.820572	-36.827854	521.960999	6.870290	-23.827969	443.914185	52.740643	-32.945786	327.794189	2.624362	-44.776134	73.043373	76.512848	-84.949615	61.363789	127.624809	88.378334	60.319851	79.067078
153	1.52000000	-93.305717	1302.267456	395.758148	-109.197556	1320.895752	14.613170	-156.986862	1379.738892	223.514725	-19.596104	1255.278809	190.932327	-97.845863	986.838379	465.236084	-205.873428	1007.135864	-41.222652	24.853213	792.071564	444.611130	-163.572414	795.523407	-55.671173	-97.456070	866.872314	369.085846	-147.719482	861.839783	19.007957	-256.336761	905.462219	266.161804	-267.687378	900.957703	174.671555	-262.012070	903.209961	220.416679	-245.866928	1136.414429	220.526947	10.502883	1065.480957	182.245148	-109.547508	514.685974	368.884583	-135.821487	425.085785	315.227173	-175.611450	254.874023	374.489166	-240.488892	54.825695	274.118500	-293.583160	54.321312	233.596451	-114.484268	41.312138	240.777100	-28.539789	520.580750	5.857248	-15.163033	442.447540	52.145473	-18.750631	325.242249	2.355176	-16.617548	70.655220	77.386932	-56.051250	57.353962	128.687073	117.151146	63.937046	79.740562
154	1.53000000	-85.410187	1301.148560	395.658875	-101.353012	1319.830933	14.480758	-149.286407	1378.560303	223.418976	-11.722219	1254.255005	190.894852	-87.097710	985.614563	464.895905	-199.038239	1006.385864	-41.267418	38.251859	792.557678	443.194519	-157.631386	794.675293	-56.123314	-89.746643	865.915222	368.988373	-138.585770	860.721741	18.575390	-248.028229	904.034790	265.146759	-259.048798	899.479797	173.723816	-253.538513	901.757294	219.435287	-237.800522	1135.122803	220.266861	18.609093	1064.462891	182.241180	-104.688431	513.812683	368.780853	-132.020081	424.396301	315.047974	-173.718384	254.548340	374.382477	-240.350494	55.078514	274.075043	-293.485596	54.860188	233.541916	-114.531792	41.340069	240.728348	-20.711466	518.792053	4.758994	-6.833412	440.808624	51.522945	-5.102007	322.814117	2.091601	10.831180	68.982025	78.290092	-27.811621	54.158764	129.796463	145.033234	68.162613	80.454727
155	1.54000000	-77.546936	1299.925537	395.487183	-93.439003	1318.700439	14.276047	-141.588715	1377.302490	223.237930	-3.828466	1253.168457	190.801865	-76.443275	984.317139	464.451691	-192.032486	1005.528625	-41.424267	51.407335	792.945435	441.682678	-151.340515	793.759033	-56.643740	-82.012115	864.918762	368.869507	-129.326492	859.543335	18.116697	-239.658966	902.505798	264.067200	-250.323669	897.892273	172.707840	-244.991318	900.199036	218.387520	-229.702042	1133.738892	219.884537	26.762417	1063.366455	182.185776	-99.819969	512.915710	368.716522	-128.232040	423.726898	314.875854	-171.851028	254.274338	374.306091	-240.200424	55.379925	274.048462	-293.365356	55.480576	233.508133	-114.592628	41.369869	240.673843	-13.273793	516.645203	3.604074	1.273026	439.044495	50.887375	8.052689	320.551544	1.826426	37.276928	67.944237	79.200363	-0.577257	51.722290	130.908737	171.750916	72.820145	81.246048
